<?xml version="1.0" encoding="UTF-8" standalone="no"?><!DOCTYPE svg PUBLIC "-//W3C//DTD SVG 1.1//EN" "http://www.w3.org/Graphics/SVG/1.1/DTD/svg11.dtd"><svg width="100%" height="100%" viewBox="0 0 512 512" version="1.1" xmlns="http://www.w3.org/2000/svg" xmlns:xlink="http://www.w3.org/1999/xlink" xml:space="preserve" xmlns:serif="http://www.serif.com/" style="fill-rule:evenodd;clip-rule:evenodd;stroke-linejoin:round;stroke-miterlimit:2;"><g><g><path d="M494.6,241.1l-50.1,-47c-50.5,-47.3 -117.4,-73.3 -188.5,-73.3c-71.1,0 -138,26 -188.4,73.3l-50.1,47c-12.1,12.9 -4.3,26.5 0,29.8l50.1,47c50.4,47.3 117.3,73.3 188.4,73.3c71.1,0 138,-26 188.4,-73.3l50.1,-47c4.7,-3.9 12.2,-17.6 0.1,-29.8Zm-238.6,74.9c-33.1,0 -60,-26.9 -60,-60c0,-33.1 26.9,-60 60,-60c33.1,0 60,26.9 60,60c0,33.1 -26.9,60 -60,60Zm-194.7,-60l34.3,-32.1c32,-30 72,-49.9 115.5,-58.1c-33.1,16.6 -55.8,50.8 -55.8,90.2c0,39.4 22.8,73.7 55.8,90.2c-43.5,-8.1 -83.5,-28.1 -115.5,-58.1l-34.3,-32.1Zm355.2,32.1c-32,30 -72,50 -115.5,58.1c33.1,-16.6 55.8,-50.8 55.8,-90.2c0,-39.4 -22.8,-73.6 -55.8,-90.2c43.5,8.1 83.5,28.1 115.5,58.1l34.3,32.1l-34.3,32.1Z" style="fill:#fff;fill-rule:nonzero;"/><path d="M256,235.2c-11.3,-0 -20.8,9.5 -20.8,20.8c0,11.3 9.5,20.8 20.8,20.8c11.3,0 20.8,-9.5 20.8,-20.8c0,-11.3 -9.5,-20.8 -20.8,-20.8Z" style="fill:#fff;fill-rule:nonzero;"/></g></g></svg>