<?xml version="1.0" encoding="UTF-8" standalone="no"?><!DOCTYPE svg PUBLIC "-//W3C//DTD SVG 1.1//EN" "http://www.w3.org/Graphics/SVG/1.1/DTD/svg11.dtd"><svg width="100%" height="100%" viewBox="0 0 584 624" version="1.1" xmlns="http://www.w3.org/2000/svg" xmlns:xlink="http://www.w3.org/1999/xlink" xml:space="preserve" xmlns:serif="http://www.serif.com/" style="fill-rule:evenodd;clip-rule:evenodd;stroke-linejoin:round;stroke-miterlimit:2;"><rect id="Artboard1" x="0" y="0" width="583.442" height="623.81" style="fill:none;"/><path d="M129.12,239.134l-29.918,-0c-14.07,-0 -25.493,10.152 -25.493,22.657l-0,115.421c-0,12.505 11.423,22.657 25.493,22.657l29.918,-0l0,-160.735Z" style="fill:#fff;"/><path d="M298.895,159.787l0.59,322.328l-147.026,-80.205l-0.295,-161.164l146.731,-80.959Z" style="fill:#fff;"/><path id="Celluar-Network" serif:id="Celluar Network" d="M362.62,228.044c25.803,21.595 40.605,54.005 40.605,88.941c0,34.624 -14.602,66.878 -40.054,88.473c-2.934,2.492 -6.635,3.876 -10.418,3.876c-5.001,-0 -9.668,-2.336 -12.818,-6.368c-5.718,-7.337 -4.651,-18.186 2.383,-24.173c17.736,-15.037 27.903,-37.566 27.903,-61.808c0,-24.45 -10.317,-47.101 -28.269,-62.138c-7.085,-5.917 -8.218,-16.75 -2.551,-24.155c2.767,-3.6 6.718,-5.849 11.101,-6.334c4.368,-0.519 8.685,0.814 12.118,3.686Z" style="fill:#fff;"/></svg>